PathFileType	4	(X/Y/Z)	C:/Users/beibeiliu/ov580/test_trc/User2\sequence.8_training_dense_right.trc
DataRate	CameraRate	NumFrames	NumMarkers	Units	OrigDataRate	OrigDataStartFrame	OrigNumFrames
120	120	24	19	mm	120	1	77
Frame#	Time	ThumbCMC			ThumbMCP			ThumbIP			ThumbTip			IndexMCP			IndexPIP			IndexTip			MiddleMCP			MiddlePIP			MiddleTip			RingMCP			RingPIP			RingTip			PinkyMCP			PinkyPIP			PinkyTip			BackHand1			BackHand2			BackHand3	
		X0	Y0	Z0	X1	Y1	Z1	X2	Y2	Z2	X3	Y3	Z3	X4	Y4	Z4	X5	Y5	Z5	X6	Y6	Z6	X7	Y7	Z7	X8	Y8	Z8	X9	Y9	Z9	X10	Y10	Z10	X11	Y11	Z11	X12	Y12	Z12	X13	Y13	Z13	X14	Y14	Z14	X15	Y15	Z15	X16	Y16	Z16	X17	Y17	Z17	X18	Y18	Z18	
0	0	94.7216	5.14266	-2.75155	65.7209	4.07107	-20.711	42.4935	3.46217	-46.2605	26.8087	0.26606	-64.1959	99.7238	28.1821	-85.0444	90.297	26.4281	-115.077	81.2753	25.3057	-137.769	131.786	29.1515	-94.0334	126.091	29.3432	-125.421	127.583	26.4826	-158.329	155.449	16.6921	-91.9874	158.56	15.9153	-119.343	162.865	15.5867	-148.533	176.648	-0.596906	-77.9044	187.81	-5.14331	-100.975	198.758	-5.87592	-120.184	156.304	19.4701	-34.3802	158.798	21.735	0.369493	123.705	27.5969	-13.7077	
1	0.00833333	91.8605	6.2754	-7.50697	69.5676	2.5199	-20.8621	43.4133	3.59379	-47.8629	23.8966	-0.471695	-60.7677	99.211	26.9584	-85.4333	87.8475	27.3876	-114.418	83.792	23.7687	-142.535	127.707	28.7636	-93.1975	124.683	29.0035	-129.826	126.621	26.6524	-160.649	152.791	17.2797	-94.8094	162.019	13.9691	-116.767	160.844	14.9206	-148.81	175.427	-1.14017	-77.7881	188.309	-5.49277	-102.627	195.618	-6.39191	-125.915	155.407	18.632	-34.951	158.477	20.4468	-0.873299	122.531	28.7398	-17.1918	
2	0.0166667	91.2424	5.28483	-2.1507	69.2011	2.80119	-23.3122	42.1028	3.66654	-46.6093	26.4317	0.274752	-63.0917	99.2798	26.8369	-86.0229	87.7652	26.8635	-110.733	85.0179	23.7752	-139.609	127.056	29.2377	-98.3722	124.196	28.9917	-129.366	126.616	26.0778	-162.115	155.224	16.428	-93.4472	157.644	14.7313	-117.068	160.965	13.7174	-147.788	176.026	0.290759	-79.1479	187.185	-6.58883	-100.496	194.975	-6.74563	-122.151	155.982	18.955	-36.2527	161.173	21.2592	-3.95675	124.453	28.5788	-15.9591	
3	0.025	89.7011	5.90359	-4.79387	67.0221	2.64743	-20.0945	42.4404	3.67555	-48.2358	23.8718	-0.290238	-63.4464	97.2996	26.8356	-83.6951	87.011	26.3674	-114.89	85.7776	23.6524	-141.351	131.025	28.6287	-96.4087	128.004	28.2225	-130.621	129.067	24.6482	-160.352	153.713	17.9144	-94.945	159.236	15.5334	-120.767	159.587	13.8533	-148.384	175.399	0.0777117	-77.8813	185.189	-6.19548	-98.8382	197.285	-7.20488	-125.2	153.129	21.1951	-35.7573	159.28	19.1532	-1.16394	119.969	28.3692	-19.0572	
4	0.0333333	88.7271	6.69801	-5.89994	67.9404	2.32844	-21.481	42.4258	2.90548	-46.8999	24.7787	-1.19368	-64.87	98.2689	27.0746	-87.7293	87.4512	26.9228	-111.787	86.0178	22.7819	-140.62	126.727	28.5228	-92.7335	125.705	27.3573	-130.414	125.946	25.3188	-158.536	152.798	15.8599	-90.1536	156.444	15.2278	-121.573	160.151	14.537	-149.792	175.995	-2.07315	-75.2293	187.135	-6.07728	-103.231	196.856	-9.18487	-125.793	153.972	19.0937	-32.8735	162.423	20.0499	-1.49039	125.692	26.5849	-15.9507	
5	0.0416667	89.3512	5.47717	-7.69016	69.8085	0.855325	-23.2791	45.2308	-0.483052	-44.3885	26.8713	-3.42837	-62.6151	95.7217	25.3975	-86.2504	91.0757	24.8785	-115.486	79.4605	22.8888	-142.624	129.314	27.3659	-93.7488	128.611	27.1356	-127.594	125.536	24.4739	-157.425	152.296	16.0155	-94.1607	159.625	14.1462	-118.544	157.884	12.9373	-146.511	178.384	-2.73681	-78.7249	184.663	-6.45611	-100.613	199.415	-8.58597	-126.322	158.047	17.2374	-36.5931	159.537	18.9502	-4.70956	125.229	26.459	-20.3646	
6	0.05	92.1733	4.35932	-7.58698	67.2352	1.94795	-21.3034	40.9274	1.58995	-45.9542	23.784	-3.66001	-60.8439	97.7173	25.3767	-87.1507	86.7055	25.3011	-114.959	85.8107	22.3758	-142.575	127.15	28.5577	-94.857	126.628	27.2979	-127.713	126.336	24.1885	-159.655	157.133	15.7517	-94.0242	161.307	13.8036	-118.942	162.15	12.804	-146.466	175.79	-2.07347	-76.9542	189.522	-8.27858	-102.036	199.898	-8.96448	-126.903	155.531	18.9005	-33.5797	158.004	18.9581	-2.41321	123.604	26.2885	-19.6915	
7	0.0583333	92.1099	4.05663	-3.29702	68.3277	2.16625	-21.9174	43.163	1.39236	-45.4229	24.3123	-1.79424	-62.2752	96.6874	26.5973	-87.1125	90.4678	24.5629	-117.293	84.0182	23.4764	-144.527	129.989	27.7639	-96.9734	127.719	27.0806	-129.263	129.982	24.0898	-163.825	158.539	14.9003	-94.6955	163.307	13.6158	-120.068	160.523	14.3353	-146.369	176.765	-1.63757	-75.511	186.504	-6.52493	-99.375	200.738	-7.02308	-123.364	155.695	20.8151	-37.6117	159.761	19.7143	-0.448329	122.535	27.4664	-16.3443	
8	0.0666667	94.8523	4.83998	-8.80989	69.3029	2.0163	-22.0477	46.4952	1.01702	-44.7569	26.1872	-2.49668	-60.5841	99.5044	26.5422	-88.7162	90.6067	26.5114	-115.354	87.44	23.9262	-140.319	131.875	28.5522	-95.6195	129.631	27.2783	-131.42	129.019	25.1299	-157.35	156.155	16.9501	-90.6529	160.676	14.6224	-117.179	163.579	15.2039	-148.863	179.436	-1.08857	-76.8267	187.104	-6.01031	-102.177	201.083	-8.83181	-120.621	160.885	20.3561	-36.1343	163.417	19.477	-3.66087	126.81	26.3542	-15.9307	
9	0.075	93.8187	6.08549	-3.58731	69.5791	2.33726	-22.8831	46.0654	2.11373	-44.706	26.5442	-0.498075	-62.456	102.656	28.6098	-88.6485	90.8625	27.4951	-111.626	87.043	24.2676	-143.04	129.526	31.3612	-97.5573	130.255	29.0455	-130.824	129.228	27.5597	-157.867	158.151	18.1793	-90.4967	160.738	16.4164	-117.045	162.849	16.2605	-147.086	182.424	-0.612919	-76.3689	189.284	-4.75994	-100.991	198.7	-4.28643	-122.997	156.441	19.4667	-33.3375	163.7	19.8435	-4.55604	129.619	28.7556	-15.0206	
10	0.0833333	96.897	7.20011	-7.50797	68.5285	4.95683	-24.6769	43.9345	2.63104	-46.6268	27.7792	-0.936341	-64.7663	102.196	29.688	-84.7365	91.1453	28.9921	-115.901	91.538	26.3451	-141.464	133.067	30.9952	-97.1324	134.348	30.5364	-127.369	132.664	27.5571	-158.819	160.923	19.1344	-94.1467	163.587	17.9747	-117.832	164.849	17.5067	-147.015	183.701	-0.665642	-76.6234	190.124	-3.83456	-101.097	202.005	-3.44142	-125.887	157.85	20.4577	-31.9513	163.751	21.9516	-0.586462	129.113	27.2622	-15.2281	
11	0.0916667	96.3465	5.61093	-4.08249	74.6683	3.30879	-24.9994	45.716	3.75807	-50.9986	26.709	0.384578	-67.0875	100.788	29.2698	-87.7397	94.438	29.0787	-116.536	89.4723	25.7882	-144.598	131.525	31.0992	-94.3941	133.57	31.3038	-129.509	130.728	29.6778	-159.744	161.035	19.9072	-93.8175	165.541	17.8544	-118.062	165.239	18.4167	-149.566	181.064	2.65661	-81.077	193.499	-1.94335	-103.699	204.37	-2.90325	-124.278	160.443	21.1036	-37.891	163.457	21.3489	-3.0384	125.462	28.4656	-19.7734	
12	0.1	94.1919	6.68892	-4.79169	73.6634	4.34496	-25.1429	48.3799	3.68868	-46.6412	29.9615	1.92906	-64.2972	100.004	29.8445	-89.9487	95.2017	28.0914	-116.505	87.8131	25.8302	-139.868	131.271	31.9124	-99.2538	135.408	29.9134	-131.856	134.342	29.2204	-159.836	160.139	20.2855	-94.6602	167.754	19.1219	-120.587	165.17	22.2972	-148.145	183.757	3.33198	-78.73	192.04	0.811433	-101.805	202.82	1.9615	-123.914	159.005	22.7903	-36.1487	162.958	20.5477	-3.93043	126.453	29.7769	-16.1386	
13	0.108333	98.4411	6.40678	-7.89223	73.2353	5.63175	-25.2952	50.4383	7.68166	-48.256	31.1143	5.0533	-62.9864	105.326	26.8082	-87.9985	97.7678	27.0176	-116.052	89.8273	26.4544	-145.181	137.657	29.2847	-94.7529	136.902	29.9479	-126.698	137.299	31.305	-161.06	164.198	19.246	-93.9333	163.549	20.5875	-116.851	169.444	23.5064	-142.455	184.774	1.36292	-73.398	195.826	0.593	-100.018	203.212	4.73782	-118.129	159.242	20.1585	-32.5965	163.524	20.6319	-4.35294	126.31	29.2582	-15.8661	
14	0.116667	97.4451	5.2128	-8.06501	72.0237	5.92909	-23.3187	51.2735	8.68433	-49.0693	30.9848	9.49457	-68.5427	103.355	24.4291	-91.8905	98.7358	22.7721	-119.046	91.0547	23.3985	-142.85	133.729	25.0478	-97.3257	138.015	25.0387	-126.512	137.075	27.9605	-159.83	165.251	15.0059	-92.4499	168.126	17.9763	-119.528	170.083	22.6739	-146.736	183.725	-1.83805	-73.6633	197.657	-2.00469	-94.2394	208.37	5.14296	-118.094	163.133	16.1951	-35.0081	162.451	19.2699	-2.92958	127.578	25.0797	-20.9608	
15	0.125	96.512	5.83213	-9.34414	75.1384	5.58902	-26.8242	52.1007	9.2502	-50.9828	35.4194	8.38203	-68.2528	103.901	22.3199	-92.1332	97.1086	21.2159	-119.812	91.6845	22.9298	-144.236	135.238	22.6811	-100.848	133.769	23.7001	-131.471	135.425	26.6811	-158.85	160.785	15.0755	-94.489	170.419	15.6406	-115.378	172.363	21.637	-145.243	184.988	-2.06816	-74.2758	197.302	-2.07894	-95.2909	207.973	5.98253	-116.218	164.791	16.1888	-34.9472	166.346	19.2288	-6.31631	128.313	23.6994	-18.9747	
16	0.133333	100.521	4.17827	-10.1921	74.8998	7.26012	-28.9353	55.6383	10.6247	-57.1299	36.475	9.98392	-73.2597	105.572	21.6574	-94.3492	98.0663	21.1268	-119.438	97.5847	22.7485	-148.472	135.702	22.672	-98.5595	135.506	22.202	-129.583	141.641	24.5686	-159.044	161.688	13.8697	-90.7182	168.367	16.1043	-119.719	170.854	22.3792	-147.355	185.531	-2.27095	-72.1571	197.424	-0.451446	-99.1609	208.809	7.73736	-118.183	163.479	16.8324	-35.1791	166.544	19.8283	-3.59369	129.92	23.3706	-19.4613	
17	0.141667	98.0321	6.30096	-12.1679	77.9197	6.38207	-33.7266	53.8002	9.3198	-55.0206	38.019	8.62415	-71.8852	109.234	21.6719	-95.9944	102.983	21.4037	-121.433	99.5912	21.5915	-147.215	139.304	22.1874	-102.371	139.137	22.9883	-133.633	138.77	26.6216	-161.692	161.823	15.9496	-94.3276	171.354	17.1324	-121.879	169.767	21.8557	-146.604	185.5	0.714085	-76.534	199.275	1.53514	-99.3235	212.588	8.42776	-114.817	165.034	17.4322	-36.1982	166.052	20.5785	-2.39647	127.012	24.4556	-20.5929	
18	0.15	97.7137	8.54827	-8.5114	78.7154	9.42537	-33.5896	55.0362	11.5304	-55.1328	37.8355	12.1263	-73.4117	108.558	20.5676	-93.625	104.879	19.5759	-119.555	103.308	19.4105	-150.935	138.554	21.1974	-103.733	142.381	18.8073	-130.361	145.723	19.831	-164.288	168.356	11.1332	-91.1004	171.37	12.7916	-117.688	173.008	14.8188	-149.163	185.705	-4.14165	-73.039	199.407	-3.19147	-100.682	211.158	-1.77598	-117.329	162.713	16.1725	-38.796	164.568	18.2158	-5.79236	132.327	25.6897	-22.6739	
19	0.158333	106.196	20.1933	-13.2718	87.8427	22.1368	-35.5171	65.8159	25.9494	-56.7831	46.2491	28.8686	-75.1567	114.165	14.5965	-94.4462	106.103	12.0061	-122.346	99.537	9.13555	-148.025	145.628	2.98242	-107.156	141.955	-2.53626	-135.926	141.419	-6.37806	-167.5	166.972	-10.3872	-99.104	167.054	-13.5412	-123.478	169.149	-18.1104	-154.255	179.528	-27.1813	-74.8822	191.232	-34.9153	-99.3613	200.499	-35.6959	-124.688	167.723	4.24827	-45.1006	175.094	10.6284	-13.9661	143.554	24.2702	-26.0302	
20	0.166667	119.842	28.3665	-18.9752	99.8551	38.434	-34.7692	75.6114	48.8256	-60.7557	61.3662	48.1644	-79.1731	119.096	8.68561	-100.041	104.938	8.32953	-123.914	96.1989	2.28143	-149.182	139.393	-7.75953	-105.533	133.793	-18.772	-133.669	125.545	-26.5813	-167.33	156.28	-29.1341	-99.5666	153.369	-38.1266	-124.505	153.288	-48.6047	-148.24	169.634	-50.156	-74.4333	172.327	-63.4188	-94.7507	179.107	-73.5621	-118.155	173.008	-11.9605	-44.0544	182.68	-1.75185	-16.7158	149.348	22.038	-37.1158	
21	0.175	132.427	39.4054	-23.5864	114.429	50.5601	-43.1917	94.1591	66.3589	-67.5348	78.3149	71.4283	-80.6806	115.968	11.0438	-103.81	104.057	11.0747	-122.566	89.6074	3.95419	-151.416	129.561	-15.2977	-107.267	115.053	-22.8037	-134.547	105.839	-34.7959	-161	139.946	-41.4351	-97.3522	131.892	-50.1997	-115.775	124.967	-61.7393	-141.808	146.8	-60.6693	-72.7488	141.243	-75.3948	-90.8558	142.232	-89.4507	-110.647	164.485	-16.2067	-45.7693	179.185	-10.9724	-19.4821	159.796	16.2395	-38.4928	
22	0.183333	146.086	44.3	-26.4518	132.375	60.0245	-43.7771	114.991	75.4227	-74.3867	100.25	86.7098	-88.5044	116.222	17.8536	-102.962	100.145	16.4174	-123.738	86.3418	11.2837	-146.146	120.17	-14.7975	-100.453	101.166	-22.1772	-126.094	84.015	-30.3855	-154.156	123.174	-39.3997	-88.1313	109.515	-47.4519	-109.845	96.279	-60.1464	-132.797	123.034	-55.9791	-67.6816	112.605	-74.146	-78.6843	106.918	-86.8867	-100.562	155.938	-20.581	-49.5885	175.594	-14.0384	-18.8048	160.977	14.1632	-43.3836	
23	0.191667	160.265	48.6553	-28.285	148.183	64.5591	-49.4194	134.014	79.6762	-74.341	123.474	97.6932	-92.189	119.158	21.0796	-98.3474	101.811	26.5634	-122.521	84.9859	20.7389	-141.934	113.65	-5.02879	-98.3084	90.2601	-12.2231	-121.165	71.6467	-17.7324	-143.887	108.35	-31.2369	-84.4587	90.5845	-42.1995	-104.096	72.0854	-46.2012	-127.245	106.161	-48.2072	-59.5535	91.5135	-57.9125	-69.5	76.7662	-76.1996	-84.7631	147.511	-21.5767	-46.8885	173.61	-19.0199	-20.6234	167.052	13.0963	-42.4519	
